<svg xmlns="http://www.w3.org/2000/svg" xmlns:xlink="http://www.w3.org/1999/xlink" viewBox="0 0 129 104.65">
<defs>
<style>
.cls-1{
  fill:#c6ac52;
}
.cls-2,.cls-3{
  fill:#fff;
}
.cls-3{
  stroke:#c6ac52;
  stroke-miterlimit:10;
  stroke-width:6px;
}
.cls-4{
  fill:url(#Dégradé_sans_nom_18);
}
</style>
<linearGradient id="Dégradé_sans_nom_18" x1="13.17" y1="46" x2="22.96" y2="46" gradientUnits="userSpaceOnUse">
<stop offset="0" stop-color="#c6ac52"/><stop offset="1" stop-color="#c6ac52"/>
</linearGradient>
</defs>
<g>
<path class="cls-1" d="M101.9,63.86c.26-.28.52-.57.76-.86l19.57-20.83a25.12,25.12,0,0,0-1.09-35.4h0A25.13,25.13,0,0,0,85.73,7.86l-3.48,3.71-3.61-3.4a25.12,25.12,0,0,0-35.4,1.1h0a25.11,25.11,0,0,0,1.1,35.4L65.94,65l.3.28L84.49,82.41l17.15-18.25.27-.29Z"/>
<path class="cls-2" d="M121.16,25.47c.89,6.4-5,11.87-8.82,16.34Q108,47,103.35,51.9A264.43,264.43,0,0,1,83.17,71.19c-1.46,1.27.67,3.38,2.12,2.12a265.71,265.71,0,0,0,25-24.61c5.71-6.44,15-14.58,13.71-24-.26-1.9-3.15-1.09-2.89.8Z"/>
<path class="cls-3" d="M59.84,84.3l.65-.75,17-18.1a21.82,21.82,0,0,0-1-30.75h0a21.82,21.82,0,0,0-30.75,1l-3,3.21-3.14-2.94a21.81,21.81,0,0,0-30.75,1h0a21.81,21.81,0,0,0,.95,30.75L28.6,85.27l.25.24,15.86,14.9L59.6,84.56h0l.24-.26Z"/>
<path class="cls-1" d="M45.74,89.47l14-14a1.5,1.5,0,0,0-2.12-2.12l-14,14a1.5,1.5,0,0,0,2.12,2.12Z"/>
<ellipse class="cls-4" cx="18.06" cy="46" rx="4.89" ry="5.06"/>
<circle class="cls-2" cx="57.01" cy="15.12" r="5.91"/>
</g>
</svg>